<svg xmlns="http://www.w3.org/2000/svg" viewBox="0 0 1200 900" role="img" aria-label="Extendio premium beauty editorial illustration"><defs><linearGradient id="bg" x1="0" y1="0" x2="1" y2="1"><stop stop-color="#fffaf0"/><stop offset=".52" stop-color="#ead8bb"/><stop offset="1" stop-color="#f8efe3"/></linearGradient><filter id="s" x="-20%" y="-20%" width="140%" height="140%"><feDropShadow dx="0" dy="30" stdDeviation="26" flood-color="#18141a" flood-opacity=".18"/></filter></defs><rect width="1200" height="900" fill="url(#bg)"/><circle cx="930" cy="165" r="210" fill="#d8c4ee" opacity=".45"/><circle cx="195" cy="720" r="180" fill="#fff" opacity=".46"/><g stroke="#b58a52" stroke-width="26" stroke-linecap="round"><line x1="225" y1="690" x2="520" y2="205"/><line x1="335" y1="720" x2="630" y2="235"/><line x1="445" y1="750" x2="740" y2="265"/></g><g stroke="#7f9b70" stroke-width="8" fill="none"><path d="M446 332 c-82-76-166-84-240-30"/><path d="M557 362 c76-82 160-98 250-54"/></g><g fill="#fff" filter="url(#s)"><circle cx="850" cy="530" r="86"/><circle cx="965" cy="485" r="60"/><circle cx="915" cy="380" r="72"/></g><rect x="720" y="610" width="270" height="70" rx="35" fill="#3f214f" opacity=".82"/><path d="M80 112 C260 50 410 132 560 90 S890 64 1110 126" fill="none" stroke="#c7a052" stroke-width="3" opacity=".45"/><text x="92" y="812" fill="#3f214f" font-family="Georgia,serif" font-size="34" letter-spacing="5">EXTENDIO</text></svg>
