<svg xmlns="http://www.w3.org/2000/svg" viewBox="0 0 1200 900" role="img" aria-label="Extendio premium beauty editorial illustration"><defs><linearGradient id="bg" x1="0" y1="0" x2="1" y2="1"><stop stop-color="#fffaf0"/><stop offset=".52" stop-color="#ead8bb"/><stop offset="1" stop-color="#f8efe3"/></linearGradient><filter id="s" x="-20%" y="-20%" width="140%" height="140%"><feDropShadow dx="0" dy="30" stdDeviation="26" flood-color="#18141a" flood-opacity=".18"/></filter></defs><rect width="1200" height="900" fill="url(#bg)"/><circle cx="930" cy="165" r="210" fill="#d8c4ee" opacity=".45"/><circle cx="195" cy="720" r="180" fill="#fff" opacity=".46"/><rect x="150" y="580" width="900" height="44" rx="22" fill="#c7a052" opacity=".35"/><ellipse cx="380" cy="448" rx="150" ry="210" fill="#fff" opacity=".75" filter="url(#s)"/><path d="M335 302 c52 64 52 220 0 288" fill="none" stroke="#3f214f" stroke-width="12"/><rect x="635" y="270" width="190" height="310" rx="90" fill="#18141a" filter="url(#s)"/><line x1="680" y1="390" x2="780" y2="390" stroke="#c7a052" stroke-width="5"/><path d="M840 540 c65-80 122-132 210-176" stroke="#b58a52" stroke-width="18" stroke-linecap="round"/><circle cx="1060" cy="356" r="32" fill="#fff"/><path d="M80 112 C260 50 410 132 560 90 S890 64 1110 126" fill="none" stroke="#c7a052" stroke-width="3" opacity=".45"/><text x="92" y="812" fill="#3f214f" font-family="Georgia,serif" font-size="34" letter-spacing="5">EXTENDIO</text></svg>
