<svg xmlns="http://www.w3.org/2000/svg" viewBox="0 0 1200 900" role="img" aria-label="Extendio premium beauty editorial illustration"><defs><linearGradient id="bg" x1="0" y1="0" x2="1" y2="1"><stop stop-color="#fffaf0"/><stop offset=".52" stop-color="#ead8bb"/><stop offset="1" stop-color="#f8efe3"/></linearGradient><filter id="s" x="-20%" y="-20%" width="140%" height="140%"><feDropShadow dx="0" dy="30" stdDeviation="26" flood-color="#18141a" flood-opacity=".18"/></filter></defs><rect width="1200" height="900" fill="url(#bg)"/><circle cx="930" cy="165" r="210" fill="#d8c4ee" opacity=".45"/><circle cx="195" cy="720" r="180" fill="#fff" opacity=".46"/><g filter="url(#s)"><rect x="655" y="215" width="245" height="430" rx="34" fill="#18141a"/><rect x="684" y="250" width="187" height="308" rx="20" fill="#231126"/><line x1="708" y1="330" x2="846" y2="330" stroke="#c7a052" stroke-width="4"/><text x="712" y="386" fill="#fffaf0" font-family="Georgia,serif" font-size="36">Extendio</text></g><g stroke="#b58a52" stroke-width="16" stroke-linecap="round"><line x1="268" y1="615" x2="548" y2="300"/><line x1="330" y1="630" x2="610" y2="315"/><line x1="392" y1="645" x2="672" y2="330"/></g><g fill="#fff"><ellipse cx="245" cy="642" rx="48" ry="25"/><ellipse cx="568" cy="278" rx="48" ry="25"/><ellipse cx="307" cy="658" rx="48" ry="25"/><ellipse cx="630" cy="293" rx="48" ry="25"/></g><path d="M730 690 C850 625 930 655 1020 594" fill="none" stroke="#3f214f" stroke-width="12" stroke-linecap="round" opacity=".55"/><path d="M80 112 C260 50 410 132 560 90 S890 64 1110 126" fill="none" stroke="#c7a052" stroke-width="3" opacity=".45"/><text x="92" y="812" fill="#3f214f" font-family="Georgia,serif" font-size="34" letter-spacing="5">EXTENDIO</text></svg>
