<svg xmlns="http://www.w3.org/2000/svg" viewBox="0 0 1200 900" role="img" aria-label="Extendio premium beauty editorial illustration"><defs><linearGradient id="bg" x1="0" y1="0" x2="1" y2="1"><stop stop-color="#fffaf0"/><stop offset=".52" stop-color="#ead8bb"/><stop offset="1" stop-color="#f8efe3"/></linearGradient><filter id="s" x="-20%" y="-20%" width="140%" height="140%"><feDropShadow dx="0" dy="30" stdDeviation="26" flood-color="#18141a" flood-opacity=".18"/></filter></defs><rect width="1200" height="900" fill="url(#bg)"/><circle cx="930" cy="165" r="210" fill="#d8c4ee" opacity=".45"/><circle cx="195" cy="720" r="180" fill="#fff" opacity=".46"/><rect x="190" y="190" width="350" height="430" rx="42" fill="#fffaf0" filter="url(#s)"/><path d="M245 545 C320 420 390 354 490 260" fill="none" stroke="#3f214f" stroke-width="18" stroke-linecap="round"/><circle cx="615" cy="410" r="155" fill="#18141a" filter="url(#s)"/><circle cx="615" cy="410" r="112" fill="#231126"/><path d="M720 578 h270 v70 h-270z" fill="#c7a052" opacity=".7"/><path d="M810 220 c82 60 93 156 36 247" fill="none" stroke="#b58a52" stroke-width="20" stroke-linecap="round"/><path d="M80 112 C260 50 410 132 560 90 S890 64 1110 126" fill="none" stroke="#c7a052" stroke-width="3" opacity=".45"/><text x="92" y="812" fill="#3f214f" font-family="Georgia,serif" font-size="34" letter-spacing="5">EXTENDIO</text></svg>