<svg xmlns="http://www.w3.org/2000/svg" width="1536" height="1024" viewBox="0 0 1536 1024" role="img" aria-label="Extendio brand signature">
  <defs>
    <linearGradient id="bg" x1="0" y1="0" x2="1" y2="1">
      <stop offset="0" stop-color="#f8f5ed"/>
      <stop offset=".55" stop-color="#ffffff"/>
      <stop offset="1" stop-color="#e8f0e6"/>
    </linearGradient>
    <filter id="shadow" x="-20%" y="-20%" width="140%" height="150%">
      <feDropShadow dx="0" dy="22" stdDeviation="20" flood-color="#1f2d27" flood-opacity=".14"/>
    </filter>
    <clipPath id="brush"><rect x="150" y="210" width="360" height="650" rx="12"/></clipPath>
    <clipPath id="buds"><rect x="570" y="390" width="520" height="300" rx="12"/></clipPath>
    <clipPath id="clips"><rect x="1048" y="460" width="360" height="300" rx="12"/></clipPath>
  </defs>
  <rect width="1536" height="1024" fill="url(#bg)"/>
  <path d="M0 760 C310 680 470 820 744 710 C1010 602 1210 710 1536 620 L1536 1024 L0 1024 Z" fill="#eef3ea"/>
  <g opacity=".44" stroke="#78945f" stroke-width="10" stroke-linecap="round">
    <path d="M94 92 C160 250 88 410 180 548"/>
    <path d="M112 172 L214 140"/>
    <path d="M128 310 L242 272"/>
    <path d="M1342 80 C1284 220 1352 356 1268 520"/>
    <path d="M1314 198 L1426 156"/>
    <path d="M1296 344 L1438 304"/>
  </g>
  <g fill="#fff" filter="url(#shadow)">
    <rect x="150" y="210" width="360" height="650" rx="12"/>
    <rect x="570" y="390" width="520" height="300" rx="12"/>
    <rect x="1048" y="460" width="360" height="300" rx="12"/>
  </g>
  <image href="../products/hair-brush/en/Main.jpg" x="150" y="210" width="360" height="650" preserveAspectRatio="xMidYMid meet" clip-path="url(#brush)"/>
  <image href="../products/bamboo-cotton-buds/en/Main.jpeg" x="570" y="390" width="520" height="300" preserveAspectRatio="xMidYMid meet" clip-path="url(#buds)"/>
  <image href="../products/hair-clips/en/02.01.jpg" x="1048" y="460" width="360" height="300" preserveAspectRatio="xMidYMid meet" clip-path="url(#clips)"/>
</svg>
