<svg xmlns="http://www.w3.org/2000/svg" width="1536" height="1024" viewBox="0 0 1536 1024" role="img" aria-label="Extendio product world">
  <defs>
    <linearGradient id="bg" x1="0" y1="0" x2="1" y2="1">
      <stop offset="0" stop-color="#fbfaf4"/>
      <stop offset=".52" stop-color="#fffdf7"/>
      <stop offset="1" stop-color="#eaf1e8"/>
    </linearGradient>
    <filter id="shadow" x="-20%" y="-20%" width="140%" height="150%">
      <feDropShadow dx="0" dy="24" stdDeviation="22" flood-color="#1f2d27" flood-opacity=".16"/>
    </filter>
    <clipPath id="brush"><rect x="132" y="210" width="360" height="650" rx="12"/></clipPath>
    <clipPath id="buds"><rect x="560" y="360" width="520" height="310" rx="12"/></clipPath>
    <clipPath id="clips"><rect x="1040" y="500" width="360" height="260" rx="12"/></clipPath>
  </defs>
  <rect width="1536" height="1024" fill="url(#bg)"/>
  <g opacity=".5" stroke="#9bb384" stroke-width="12" stroke-linecap="round">
    <path d="M72 120 C160 230 110 390 202 520"/>
    <path d="M92 205 L186 170"/>
    <path d="M128 330 L238 290"/>
    <path d="M1280 160 C1220 310 1290 430 1210 600"/>
    <path d="M1250 260 L1350 220"/>
    <path d="M1230 420 L1362 388"/>
  </g>
  <g opacity=".72" fill="#f8f1e5">
    <rect x="424" y="120" width="680" height="690" rx="6"/>
    <rect x="670" y="240" width="610" height="640" rx="6"/>
  </g>
  <g fill="#ffffff" filter="url(#shadow)">
    <rect x="132" y="210" width="360" height="650" rx="12"/>
    <rect x="560" y="360" width="520" height="310" rx="12"/>
    <rect x="1040" y="500" width="360" height="260" rx="12"/>
  </g>
  <image href="../products/hair-brush/en/Main.jpg" x="132" y="210" width="360" height="650" preserveAspectRatio="xMidYMid meet" clip-path="url(#brush)"/>
  <image href="../products/bamboo-cotton-buds/en/Main.jpeg" x="560" y="360" width="520" height="310" preserveAspectRatio="xMidYMid meet" clip-path="url(#buds)"/>
  <image href="../products/hair-clips/en/02.01.jpg" x="1040" y="500" width="360" height="260" preserveAspectRatio="xMidYMid meet" clip-path="url(#clips)"/>
  <g opacity=".55" fill="#ffffff">
    <circle cx="1360" cy="120" r="34"/>
    <circle cx="1418" cy="145" r="30"/>
    <circle cx="1340" cy="178" r="28"/>
    <circle cx="1420" cy="208" r="32"/>
    <circle cx="78" cy="842" r="28"/>
    <circle cx="126" cy="890" r="34"/>
  </g>
</svg>
