<svg xmlns="http://www.w3.org/2000/svg" viewBox="0 0 1200 900" role="img" aria-label="Extendio premium beauty editorial illustration"><defs><linearGradient id="bg" x1="0" y1="0" x2="1" y2="1"><stop stop-color="#fffaf0"/><stop offset=".52" stop-color="#ead8bb"/><stop offset="1" stop-color="#f8efe3"/></linearGradient><filter id="s" x="-20%" y="-20%" width="140%" height="140%"><feDropShadow dx="0" dy="30" stdDeviation="26" flood-color="#18141a" flood-opacity=".18"/></filter></defs><rect width="1200" height="900" fill="url(#bg)"/><circle cx="930" cy="165" r="210" fill="#d8c4ee" opacity=".45"/><circle cx="195" cy="720" r="180" fill="#fff" opacity=".46"/><g filter="url(#s)"><path d="M350 260 h410 l110 92 v300 h-410 l-110-92z" fill="#18141a"/><path d="M350 260 h410 l110 92 h-410z" fill="#2a172b"/><path d="M460 352 h410 v300 h-410z" fill="#141116"/><line x1="520" y1="435" x2="805" y2="435" stroke="#c7a052" stroke-width="5"/><text x="545" y="505" fill="#fffaf0" font-family="Georgia,serif" font-size="48">Extendio</text></g><g stroke="#b58a52" stroke-width="12" stroke-linecap="round"><line x1="250" y1="315" x2="355" y2="210"/><line x1="285" y1="340" x2="390" y2="235"/></g><g fill="#fff"><ellipse cx="235" cy="330" rx="34" ry="18"/><ellipse cx="370" cy="196" rx="34" ry="18"/></g><path d="M80 112 C260 50 410 132 560 90 S890 64 1110 126" fill="none" stroke="#c7a052" stroke-width="3" opacity=".45"/><text x="92" y="812" fill="#3f214f" font-family="Georgia,serif" font-size="34" letter-spacing="5">EXTENDIO</text></svg>