<svg xmlns="http://www.w3.org/2000/svg" width="1448" height="1086" viewBox="0 0 1448 1086" role="img" aria-label="Extendio daily routine products">
  <defs>
    <linearGradient id="bg" x1="0" y1="0" x2="1" y2="1">
      <stop offset="0" stop-color="#f7f2e8"/>
      <stop offset=".52" stop-color="#fffdf8"/>
      <stop offset="1" stop-color="#e7efe4"/>
    </linearGradient>
    <filter id="shadow" x="-18%" y="-18%" width="136%" height="150%">
      <feDropShadow dx="0" dy="24" stdDeviation="20" flood-color="#1f2d27" flood-opacity=".15"/>
    </filter>
    <clipPath id="clips"><rect x="500" y="220" width="420" height="310" rx="12"/></clipPath>
    <clipPath id="buds"><rect x="165" y="620" width="420" height="280" rx="12"/></clipPath>
    <clipPath id="brushes"><rect x="760" y="610" width="520" height="300" rx="12"/></clipPath>
  </defs>
  <rect width="1448" height="1086" fill="url(#bg)"/>
  <g opacity=".5" stroke="#8aa16f" stroke-width="12" stroke-linecap="round">
    <path d="M86 70 C160 260 90 410 172 610"/>
    <path d="M104 180 L220 140"/>
    <path d="M122 338 L260 296"/>
    <path d="M1324 690 C1240 842 1290 930 1168 1070"/>
    <path d="M1280 772 L1398 730"/>
    <path d="M1240 900 L1372 866"/>
  </g>
  <g fill="#ffffff" filter="url(#shadow)">
    <rect x="500" y="220" width="420" height="310" rx="12"/>
    <rect x="165" y="620" width="420" height="280" rx="12"/>
    <rect x="760" y="610" width="520" height="300" rx="12"/>
  </g>
  <image href="../products/hair-clips/en/02.01.jpg" x="500" y="220" width="420" height="310" preserveAspectRatio="xMidYMid meet" clip-path="url(#clips)"/>
  <image href="../products/bamboo-cotton-buds/en/Main.jpeg" x="165" y="620" width="420" height="280" preserveAspectRatio="xMidYMid meet" clip-path="url(#buds)"/>
  <image href="../products/hair-brush/en/7 2.jpg" x="760" y="610" width="520" height="300" preserveAspectRatio="xMidYMid meet" clip-path="url(#brushes)"/>
  <g opacity=".55" fill="#fff">
    <circle cx="1190" cy="120" r="32"/>
    <circle cx="1246" cy="150" r="28"/>
    <circle cx="1150" cy="178" r="30"/>
    <circle cx="1270" cy="212" r="34"/>
  </g>
</svg>
